<?xml version="1.0" standalone="no"?>
<!DOCTYPE svg PUBLIC "-//W3C//DTD SVG 20010904//EN"
 "http://www.w3.org/TR/2001/REC-SVG-20010904/DTD/svg10.dtd">
<svg version="1.0" xmlns="http://www.w3.org/2000/svg"
 width="256.000000pt" height="256.000000pt" viewBox="0 0 256.000000 256.000000"
 preserveAspectRatio="xMidYMid meet">
<metadata>
Created by potrace 1.16, written by Peter Selinger 2001-2019
</metadata>
<g transform="translate(0.000000,256.000000) scale(0.100000,-0.100000)"
fill="#000000" stroke="none">
<path d="M0 1626 c0 -881 1 -934 17 -941 10 -5 23 -7 29 -6 7 1 14 -5 17 -13
4 -9 15 -13 26 -11 11 2 22 -2 25 -10 2 -7 21 -19 40 -26 20 -7 36 -17 36 -21
0 -4 8 -8 19 -8 10 0 24 -7 31 -15 7 -8 18 -15 25 -15 7 0 18 -7 25 -15 7 -9
15 -13 17 -11 3 3 15 -4 27 -16 33 -32 99 -59 108 -45 6 9 8 8 8 -2 0 -8 8
-20 18 -27 16 -13 16 -14 0 -8 -30 10 -20 -4 15 -22 17 -9 38 -25 45 -35 7
-11 19 -19 26 -19 8 0 16 -9 19 -20 5 -21 27 -28 27 -9 0 8 5 8 15 -1 8 -7 15
-29 16 -49 1 -36 1 -36 14 13 8 28 12 53 9 57 -2 4 0 10 5 13 30 19 51 361 25
403 -13 20 -12 22 3 16 12 -5 15 -2 10 10 -4 9 -10 24 -14 34 -4 11 -3 14 5 9
18 -11 14 8 -7 35 -10 13 -21 34 -25 47 -4 12 -14 22 -21 22 -11 0 -12 6 -5
24 7 19 4 30 -12 51 -13 17 -23 23 -28 16 -6 -11 -21 11 -34 53 -6 17 -10 15
-41 -17 -20 -20 -45 -42 -57 -48 -20 -11 -19 -8 5 21 55 65 71 109 68 188 -1
46 2 72 8 72 6 0 11 -15 12 -32 l1 -33 9 30 c5 17 8 73 7 125 -1 69 3 109 16
147 17 52 17 54 -3 112 -20 59 -22 129 -5 195 5 20 4 27 -4 22 -7 -4 -6 6 3
27 12 30 12 37 -2 58 -9 13 -21 27 -26 30 -6 4 -7 16 -4 28 2 11 -1 28 -9 38
-17 23 -18 53 -1 53 7 0 37 -22 67 -50 30 -27 58 -48 62 -47 4 1 32 26 62 55
31 29 80 66 111 81 30 15 52 32 47 36 -4 5 -1 5 6 1 15 -9 54 2 47 13 -2 5
-33 11 -68 14 -89 8 -149 33 -145 61 6 44 127 76 308 80 182 5 322 -22 333
-66 7 -27 -54 -54 -164 -72 -46 -7 -77 -16 -69 -19 8 -3 42 -15 75 -26 98 -32
159 -63 181 -90 6 -8 16 -11 23 -7 6 4 10 4 9 -1 -4 -11 55 -83 68 -83 11 0
63 -61 83 -97 6 -13 13 -42 15 -66 2 -24 10 -59 20 -77 9 -18 16 -39 16 -46 0
-7 5 -25 12 -41 6 -15 13 -37 14 -48 2 -11 15 -56 29 -100 34 -106 42 -132 55
-182 6 -24 15 -43 21 -43 6 0 7 -5 4 -11 -4 -5 -1 -25 5 -42 15 -37 49 -114
61 -139 5 -10 9 -22 9 -28 0 -6 11 -33 25 -62 14 -28 25 -55 25 -60 0 -4 13
-36 30 -70 16 -34 30 -68 30 -76 0 -21 50 -7 172 50 59 27 112 47 118 43 16
-10 12 -33 -9 -54 -19 -19 -19 -19 2 -25 17 -4 19 -8 9 -18 -16 -16 -15 -28 3
-28 19 0 19 -9 -2 -32 -15 -17 -14 -18 29 -18 32 0 48 -5 52 -15 3 -8 15 -15
27 -15 21 0 21 -1 6 -18 -9 -10 -39 -26 -67 -36 -45 -16 -59 -36 -26 -36 7 0
13 -12 13 -30 0 -35 11 -50 22 -31 6 10 10 10 13 1 2 -7 27 -13 59 -14 31 -2
60 -5 65 -8 8 -4 70 -4 117 0 16 2 17 58 17 1027 l0 1025 -1280 0 -1280 0 0
-934z"/>
<path d="M895 2292 c-55 -8 -102 -16 -104 -18 -3 -2 1 -10 7 -16 18 -18 307
-26 412 -12 54 8 86 22 73 35 -9 9 -220 31 -263 27 -14 -1 -70 -8 -125 -16z"/>
</g>
</svg>
